<svg width="101" height="57" viewBox="0 0 101 57" fill="none" xmlns="http://www.w3.org/2000/svg">
  <path d="M73.7738 42.5164C71.4777 42.5164 69.61 40.6471 69.61 38.3511C69.61 36.0551 71.4777 34.1874 73.7738 34.1874C76.0702 34.1874 77.9379 36.0547 77.9379 38.3511C77.9379 40.6475 76.0702 42.5164 73.7738 42.5164ZM27.7485 42.5164C25.4524 42.5164 23.5847 40.6471 23.5847 38.3511C23.5847 36.0551 25.452 34.1874 27.7485 34.1874C30.0445 34.1874 31.9122 36.0547 31.9122 38.3511C31.9122 40.6475 30.0449 42.5164 27.7485 42.5164ZM75.2672 17.4333L83.5894 3.01982C83.8185 2.62205 83.8804 2.14964 83.7616 1.70626C83.6428 1.26288 83.3529 0.884734 82.9556 0.654803C82.5578 0.425825 82.0855 0.363953 81.6421 0.482757C81.1988 0.60156 80.8206 0.891339 80.5906 1.28855L72.1644 15.8842C65.7203 12.9437 58.4834 11.3054 50.7611 11.3054C43.0388 11.3054 35.802 12.9437 29.3582 15.8842L20.9316 1.28855C20.7016 0.891339 20.3235 0.60156 19.8801 0.482757C19.4368 0.363953 18.9644 0.425825 18.5666 0.654803C18.1691 0.884519 17.879 1.26266 17.7602 1.70614C17.6414 2.14961 17.7035 2.62212 17.9328 3.01982L26.255 17.4333C11.9647 25.2055 2.19094 39.6727 0.761108 56.7648H100.761C99.3301 39.6731 89.5564 25.2055 75.2672 17.4329" fill="#3DDB85"/>
</svg>