<svg width="101" height="101" viewBox="0 0 101 101" fill="none" xmlns="http://www.w3.org/2000/svg">
  <path d="M30.1186 46.5158C29.6598 45.9167 28.9823 45.5238 28.2344 45.4231C27.4866 45.3223 26.7293 45.5219 26.1282 45.9782C25.7746 46.2571 25.4894 46.613 25.2943 47.0189L0.793702 96.034C0.446689 96.7286 0.389691 97.5326 0.635236 98.2693C0.880781 99.0059 1.40877 99.6149 2.10316 99.9624C2.50904 100.168 2.95777 100.274 3.41262 100.273H37.5481C38.0948 100.287 38.6338 100.141 39.0989 99.8531C39.5641 99.5654 39.9353 99.1483 40.167 98.6529C47.5344 83.4356 43.0685 60.2996 30.1186 46.5158Z" fill="url(#paint0_linear_301_8473)"/>
  <path d="M48.1272 1.9114C42.0194 11.3102 38.4598 22.1354 37.7977 33.3248C37.1356 44.5143 39.3937 55.6836 44.3504 65.7372L60.8083 98.6528C61.0514 99.1393 61.4252 99.5485 61.8877 99.8345C62.3503 100.121 62.8833 100.272 63.4272 100.272H97.5559C97.9408 100.273 98.322 100.198 98.6778 100.051C99.0336 99.9044 99.3569 99.6887 99.629 99.4165C99.9012 99.1444 100.117 98.8211 100.264 98.4653C100.411 98.1096 100.486 97.7283 100.485 97.3434C100.485 96.8894 100.381 96.4415 100.182 96.0339L53.11 1.89762C52.8866 1.42591 52.5338 1.02733 52.0928 0.748211C51.6517 0.469096 51.1405 0.320923 50.6186 0.320923C50.0966 0.320923 49.5854 0.469096 49.1444 0.748211C48.7033 1.02733 48.3506 1.42591 48.1272 1.89762V1.9114Z" fill="#2684FF"/>
  <defs>
    <linearGradient id="paint0_linear_301_8473" x1="43.6061" y1="54.0073" x2="17.7339" y2="98.8183" gradientUnits="userSpaceOnUse">
      <stop stop-color="#0052CC"/>
      <stop offset="0.92" stop-color="#2684FF"/>
    </linearGradient>
  </defs>
</svg>