<svg width="100" height="101" viewBox="0 0 100 101" fill="none" xmlns="http://www.w3.org/2000/svg">
  <path fill-rule="evenodd" clip-rule="evenodd" d="M58.8812 0.414062C58.1581 0.414062 57.4866 0.569019 56.8668 0.775615C58.1839 1.65367 58.907 2.81581 59.2685 4.13289C59.2944 4.31366 59.346 4.44279 59.3719 4.62356C59.3978 4.77851 59.4235 4.93347 59.4235 5.08842C59.5268 7.36103 58.8295 7.6451 58.3388 8.98801C57.5899 10.7183 57.7965 12.5777 58.7004 14.0756C58.7779 14.2563 58.8812 14.4629 59.0103 14.6437C58.0289 8.10996 63.478 7.1286 64.4852 5.08842C64.5627 3.30648 63.0907 2.11852 61.9285 1.29212C60.818 0.620665 59.8109 0.414062 58.8812 0.414062ZM67.0936 1.8861C66.9902 2.48007 67.0677 2.32512 67.0419 2.63503C67.0161 2.84162 67.0161 3.09988 66.9903 3.30648C66.9387 3.51308 66.887 3.71968 66.8095 3.92629C66.7579 4.13289 66.6804 4.33949 66.603 4.54608C66.4996 4.7527 66.4222 4.93346 66.3189 5.14007C66.2414 5.24341 66.1898 5.34666 66.1123 5.44997C66.0607 5.52745 66.0089 5.60492 65.9573 5.6824C65.8282 5.86318 65.6991 6.04395 65.5699 6.1989C65.415 6.35385 65.2859 6.53462 65.1051 6.66376V6.68961C64.9501 6.81874 64.7952 6.97369 64.6144 7.10281C64.0721 7.51601 63.4523 7.82592 62.8841 8.2133C62.7034 8.34242 62.5226 8.44573 62.3676 8.60067C62.1869 8.7298 62.0319 8.85892 61.877 9.01387C61.6962 9.16882 61.567 9.32378 61.4121 9.50456C61.283 9.65951 61.128 9.84028 61.0247 10.0211C60.8956 10.2018 60.7665 10.3826 60.6632 10.5634C60.5598 10.77 60.4824 10.9508 60.3791 11.1574C60.3016 11.364 60.2241 11.5447 60.1725 11.7513C60.095 11.9838 60.0434 12.1904 59.9917 12.397C59.9659 12.5003 59.9659 12.6294 59.9401 12.7327C59.9142 12.836 59.9142 12.9393 59.8885 13.0426C59.8885 13.2492 59.8626 13.4816 59.8626 13.6882C59.8626 13.8432 59.8626 13.9981 59.8885 14.1531C59.8885 14.3597 59.9144 14.5663 59.966 14.7987C59.9918 15.0053 60.0434 15.2119 60.0951 15.4185C60.1726 15.6251 60.2242 15.8317 60.3017 16.0383C60.3533 16.1674 60.4308 16.2966 60.4825 16.3999L54.5427 14.1014C53.5355 13.8173 52.5542 13.5591 51.547 13.3267C51.0046 13.1976 50.4623 13.0684 49.92 12.9393C48.3705 12.6294 46.7952 12.397 45.2198 12.242C45.1682 12.242 45.1423 12.2162 45.0907 12.2162C43.5412 12.0612 42.0175 11.9837 40.468 11.9837C39.3317 11.9837 38.1954 12.0353 37.0849 12.1129C35.5095 12.2162 33.9342 12.4228 32.3589 12.681C31.9715 12.7326 31.5841 12.8101 31.1967 12.8876C30.3962 13.0426 29.6214 13.2233 28.8725 13.4041C28.4851 13.5075 28.0977 13.6107 27.7103 13.714C27.323 13.869 26.9614 14.0498 26.5999 14.2047C26.3158 14.3338 26.0317 14.4629 25.7476 14.5921C25.696 14.6179 25.6443 14.6179 25.6185 14.6437C25.3603 14.7728 25.1278 14.8761 24.8954 15.0052C24.8179 15.0311 24.7663 15.0569 24.7146 15.0827C24.4306 15.2118 24.1465 15.3668 23.9141 15.4959C23.7333 15.5734 23.5525 15.6767 23.3976 15.7542C23.3201 15.8058 23.2168 15.8575 23.1651 15.8833C22.9327 16.0124 22.7003 16.1415 22.4937 16.2707C22.2612 16.3998 22.0546 16.5289 21.8739 16.658C21.6931 16.7872 21.5123 16.8905 21.3574 17.0196C21.3315 17.0455 21.3057 17.0455 21.2799 17.0712C21.1249 17.1746 20.9442 17.3036 20.7892 17.4328C20.7892 17.4328 20.7633 17.4586 20.7376 17.4844C20.6085 17.5877 20.4793 17.691 20.3502 17.7943C20.2986 17.8201 20.2469 17.8717 20.1953 17.8976C20.0661 18.001 19.937 18.13 19.8079 18.2333C19.782 18.285 19.7304 18.3108 19.7046 18.3367C19.5496 18.4916 19.3947 18.6208 19.2397 18.7757C19.2138 18.7757 19.2138 18.8016 19.1881 18.8273C19.0331 18.9564 18.8782 19.1114 18.7232 19.2664C18.6974 19.2922 18.6974 19.318 18.6716 19.318C18.5425 19.4471 18.4134 19.5762 18.2842 19.7312C18.2326 19.7828 18.1551 19.8345 18.1035 19.8861C17.9744 20.0411 17.8194 20.196 17.6644 20.351C17.6386 20.4026 17.587 20.4284 17.5611 20.4801C17.3545 20.6867 17.1737 20.8933 16.9671 21.0999C16.9413 21.1258 16.9155 21.1515 16.8897 21.1774C16.4764 21.6164 16.0374 22.0554 15.5726 22.4428C15.1077 22.856 14.617 23.2434 14.1264 23.5791C13.6099 23.9407 13.1192 24.2506 12.5768 24.5605C12.0603 24.8445 11.518 25.1028 10.9499 25.3352C10.4075 25.5676 9.83938 25.7743 9.27123 25.955C8.18657 26.1874 7.07609 26.6265 6.12056 26.704C5.91396 26.704 5.68153 26.7556 5.47493 26.7814C5.2425 26.833 5.0359 26.8848 4.82931 26.9364C4.62271 27.0138 4.4161 27.0913 4.2095 27.1688C4.0029 27.2463 3.7963 27.3496 3.5897 27.4529C3.40892 27.582 3.20232 27.6853 3.02154 27.8144C2.84077 27.9436 2.65999 28.0985 2.50504 28.2535C2.32427 28.3826 2.14349 28.5634 1.98853 28.7183C1.83358 28.8991 1.67863 29.054 1.54951 29.2348C1.42038 29.4414 1.26543 29.6222 1.16213 29.8288C1.033 30.0096 0.903882 30.2162 0.800576 30.4228C0.697234 30.6552 0.593977 30.8618 0.516501 31.0942C0.439025 31.3008 0.361549 31.5333 0.284073 31.7657C0.232463 31.9723 0.180732 32.1789 0.154951 32.3855C0.154951 32.4114 0.129086 32.4371 0.129086 32.463C0.0774755 32.6954 0.0774754 33.0053 0.0516095 33.1603C0.0257446 33.341 0 33.496 0 33.6768C0 33.7801 8.03957e-08 33.9092 0.025865 34.0125C0.0517299 34.1933 0.0774744 34.3482 0.129207 34.5032C0.180817 34.6581 0.232549 34.813 0.309976 34.968V34.9939C0.387452 35.1488 0.490757 35.3038 0.594051 35.4587C0.697393 35.6137 0.800662 35.7686 0.929784 35.9236C1.05891 36.0527 1.21386 36.2076 1.36881 36.3368C1.52376 36.4917 1.67872 36.6209 1.85948 36.75C2.47929 37.2923 2.63424 37.4731 3.43482 37.8863C3.56394 37.9638 3.69308 38.0154 3.84803 38.0929C3.8739 38.0929 3.89964 38.1187 3.92551 38.1187C3.92551 38.1704 3.92551 38.1962 3.95138 38.2479C3.97724 38.4545 4.02885 38.6611 4.0805 38.8677C4.13211 39.1001 4.20963 39.3067 4.28711 39.4875C4.36459 39.6424 4.41623 39.7974 4.49371 39.9524C4.51957 40.004 4.54532 40.0557 4.57119 40.0815C4.67453 40.2881 4.77778 40.4689 4.88108 40.6496C5.01021 40.8304 5.13933 41.0112 5.26846 41.192C5.39758 41.3469 5.55253 41.5277 5.70748 41.6826C5.86244 41.8376 6.01739 41.9667 6.19817 42.1216C6.19817 42.1216 6.22404 42.1475 6.24978 42.1475C6.40473 42.2767 6.55968 42.4058 6.71464 42.5091C6.89541 42.6382 7.07619 42.7415 7.28279 42.8448C7.46357 42.9482 7.67017 43.0514 7.87676 43.1289C8.03172 43.2064 8.21248 43.258 8.39327 43.3097C8.41914 43.3356 8.44488 43.3356 8.49661 43.3613C8.59995 43.3872 8.72902 43.4129 8.83233 43.4388C8.75485 44.8333 8.72899 46.1504 8.93567 46.6153C9.16809 47.1318 10.3044 45.5564 11.4407 43.7487C11.2858 45.5306 11.1825 47.6224 11.4407 48.2423C11.7248 48.8879 13.2743 46.8735 14.6172 44.6525C32.9272 40.4172 49.6361 53.0716 51.3922 70.9426C51.0565 68.1534 47.6217 66.6039 46.0464 66.9913C45.2717 68.9024 43.9546 71.3558 41.8369 72.8794C42.0177 71.175 41.9403 69.4189 41.5787 67.7144C41.0105 70.0903 39.9 72.3113 38.3763 74.2224C35.923 74.4031 33.4696 73.2152 32.1783 71.4332C32.075 71.3558 32.0492 71.2008 31.9717 71.0975C31.8942 70.9167 31.8167 70.736 31.7651 70.5552C31.6876 70.3744 31.636 70.1936 31.6101 70.0129C31.5843 69.8321 31.5843 69.6513 31.5843 69.4447C31.5843 69.3156 31.5843 69.1864 31.5843 69.0573C31.6101 68.8765 31.6618 68.6958 31.7134 68.515C31.765 68.3342 31.8167 68.1534 31.8942 67.9727C31.9975 67.7919 32.075 67.6111 32.2041 67.4303C32.6431 66.1907 32.6431 65.1835 31.8425 64.5896C31.6876 64.4862 31.5326 64.4088 31.3518 64.3313C31.2485 64.3055 31.1194 64.2538 31.0161 64.228C30.9387 64.2021 30.887 64.1763 30.8095 64.1505C30.6287 64.0989 30.448 64.0471 30.2672 64.0214C30.0864 63.9698 29.9056 63.9439 29.7249 63.9439C29.5441 63.918 29.3375 63.8923 29.1567 63.8923C29.0276 63.8923 28.8985 63.9181 28.7693 63.9181C28.5627 63.9181 28.382 63.944 28.2012 63.9956C28.0204 64.0215 27.8396 64.0472 27.6589 64.0989C27.4781 64.1506 27.2973 64.2023 27.1165 64.2797C26.9358 64.3572 26.7808 64.4347 26.6 64.5122C26.4451 64.5896 26.2901 64.6929 26.1093 64.7704C20.0921 68.6958 23.6818 77.8896 27.788 80.5496C26.2385 80.8336 24.6631 81.1694 24.2241 81.5051C24.1982 81.531 24.1725 81.5567 24.1725 81.5567C25.283 82.2282 26.4451 82.7963 27.6589 83.287C29.3117 83.8293 31.0678 84.32 31.8426 84.5266V84.5525C33.9861 84.9915 36.1554 85.1465 38.3505 85.0173C49.7911 84.2168 59.1656 75.5137 60.8701 64.0473C60.9217 64.2797 60.9734 64.4863 61.025 64.7188C61.1025 65.1836 61.2058 65.6743 61.2574 66.165V66.1909C61.309 66.4233 61.3349 66.6557 61.3608 66.8623V66.9657C61.3867 67.1981 61.4124 67.4305 61.4124 67.6371C61.4382 67.9212 61.464 68.2053 61.464 68.4893V68.9025C61.464 69.0317 61.4898 69.1866 61.4898 69.3157C61.4898 69.4707 61.464 69.6256 61.464 69.7806V70.1421C61.464 70.3229 61.4381 70.4779 61.4381 70.6586C61.4381 70.762 61.4381 70.8652 61.4122 70.9944C61.4122 71.1752 61.3864 71.3559 61.3864 71.5625C61.3605 71.64 61.3605 71.7175 61.3605 71.795C61.3346 72.0016 61.3089 72.1823 61.283 72.3889C61.283 72.4664 61.283 72.5439 61.2571 72.6214C61.2312 72.8796 61.1797 73.1121 61.1538 73.3703V73.3962V73.4221C61.1022 73.6545 61.0505 73.9127 60.9988 74.1451V74.2226C60.9472 74.455 60.8955 74.6875 60.8439 74.9199C60.8439 74.9458 60.8181 74.9974 60.8181 75.0232C60.7664 75.2557 60.7147 75.4881 60.6373 75.7205V75.798C60.5598 76.0562 60.4823 76.2887 60.4307 76.5211C60.4048 76.547 60.4048 76.5727 60.4048 76.5727C60.3273 76.831 60.2499 77.0892 60.1724 77.3475C60.0691 77.6057 59.9916 77.8381 59.8883 78.0964C59.785 78.3546 59.7075 78.6129 59.6042 78.8453C59.5009 79.1036 59.3976 79.336 59.2943 79.5943H59.2684C59.1651 79.8267 59.0618 80.0849 58.9327 80.3174C58.9068 80.3948 58.8811 80.4465 58.8552 80.4981C58.8294 80.524 58.8294 80.5497 58.8036 80.5756C57.125 83.9587 54.6458 86.9286 51.5468 89.2529C51.3402 89.382 51.1335 89.5369 50.927 89.6919C50.8753 89.7435 50.7978 89.7694 50.7462 89.821C50.5654 89.9501 50.3846 90.0793 50.178 90.2084L50.2555 90.3633H50.2814C50.6429 90.3117 51.0045 90.26 51.366 90.2084H51.3919C52.0633 90.105 52.7348 89.976 53.4062 89.8468C53.587 89.8209 53.7936 89.7694 53.9744 89.7177C54.1035 89.6918 54.2068 89.6661 54.3359 89.6402C54.5167 89.6143 54.6975 89.5627 54.8783 89.5369C55.0332 89.4853 55.1882 89.4594 55.3431 89.4078C57.9256 88.7879 60.4307 87.9357 62.8324 86.9285C58.7262 92.5326 53.2255 97.052 46.795 100.022C49.7649 99.8153 52.7348 99.3246 55.6014 98.4982C66.0089 95.425 74.7636 88.4264 80.0061 79.0002C78.9473 84.9658 76.5714 90.6474 73.0592 95.6058C75.5642 93.953 77.8626 92.0419 79.9545 89.8726C85.7393 83.8295 89.5356 76.1595 90.8269 67.9212C91.7049 72.0016 91.9632 76.2111 91.5758 80.369C110.222 54.363 93.1253 27.4016 85.9717 20.2997C85.9459 20.248 85.9201 20.2222 85.9201 20.1705C85.8942 20.1964 85.8942 20.1964 85.8942 20.2221C85.8942 20.1963 85.8942 20.1963 85.8684 20.1705C85.8684 20.4804 85.8425 20.7903 85.8168 21.1002C85.7393 21.6942 85.6618 22.2624 85.5585 22.8305C85.4294 23.3987 85.2744 23.9668 85.1195 24.535C84.9387 25.0773 84.7321 25.6455 84.4997 26.1878C84.2673 26.7043 84.009 27.2466 83.7249 27.7631C83.4409 28.2538 83.131 28.7703 82.7952 29.2352C82.4595 29.7258 82.098 30.1907 81.7364 30.6297C81.349 31.0946 80.9358 31.5078 80.5226 31.921C80.2644 32.1534 80.0319 32.36 79.7737 32.5666C79.5671 32.7474 79.3863 32.9023 79.1797 33.0831C78.7149 33.4446 78.25 33.7804 77.7335 34.0903C77.2428 34.4002 76.7263 34.7101 76.2098 34.9683C75.6675 35.2266 75.1252 35.459 74.5828 35.6914C74.0405 35.898 73.4724 36.0788 72.9042 36.2338C72.336 36.3887 71.7421 36.5178 71.1739 36.6211C70.5799 36.7245 69.986 36.7761 69.4178 36.8278C69.0046 36.8536 68.5914 36.8794 68.1782 36.8794C67.5842 36.8794 66.9902 36.8278 66.4221 36.776C65.8281 36.7244 65.2341 36.6469 64.666 36.5178C64.072 36.4144 63.5038 36.2595 62.9357 36.0787H62.9098C63.478 36.0271 64.0461 35.9754 64.6143 35.8721C65.2083 35.7688 65.7764 35.6397 66.3446 35.4848C66.9127 35.3298 67.4809 35.149 68.0232 34.9424C68.5914 34.7358 69.1337 34.4776 69.6502 34.2193C70.1925 33.9611 70.6832 33.677 71.1997 33.3671C71.6904 33.0314 72.1811 32.6956 72.6459 32.3341C73.1108 31.9725 73.5498 31.5852 73.963 31.172C74.402 30.7846 74.7894 30.3455 75.1768 29.9065C75.5641 29.4417 75.9257 28.9768 76.2614 28.512C76.313 28.4345 76.3648 28.3312 76.4164 28.2537C76.6746 27.8405 76.9329 27.4273 77.1653 27.0141C77.4494 26.4976 77.7076 25.9811 77.9401 25.4388C78.1725 24.8964 78.3791 24.3541 78.5599 23.786C78.7406 23.2436 78.8698 22.6755 78.9989 22.1073C79.1023 21.5134 79.2055 20.9452 79.2572 20.377C79.3088 19.7831 79.3605 19.1891 79.3605 18.6209C79.3605 18.2077 79.3346 17.7945 79.3089 17.3813C79.2573 16.7874 79.1798 16.2192 79.1023 15.651C78.9989 15.0571 78.8699 14.4889 78.7149 13.9208C78.5341 13.3784 78.3534 12.8103 78.1468 12.268C77.9401 11.7256 77.6819 11.1833 77.4236 10.6668C77.1396 10.1503 76.8555 9.63378 76.5456 9.14311C76.2099 8.65244 75.8741 8.18758 75.5126 7.72272C75.1252 7.28369 74.7378 6.84467 74.3246 6.40564C74.118 6.19904 73.8856 5.96662 73.6532 5.76002C72.491 4.85613 71.2773 4.0039 70.0635 3.22915C69.8827 3.12581 69.7278 3.04837 69.547 2.97089C68.6947 2.42857 67.8941 2.14434 67.0936 1.8861Z" fill="#E0234E"/>
</svg>