<svg width="103" height="103" viewBox="0 0 103 103" fill="none" xmlns="http://www.w3.org/2000/svg">
  <path d="M52.4089 5.40955L6.61081 51.2692L52.2181 96.9378L98.0162 51.0781L52.4089 5.40955Z" fill="#019833" stroke="black" stroke-width="0.267335"/>
  <path d="M52.2181 5.60061V1.58789L2.41266 51.4603H6.61082L52.2181 5.60061Z" fill="#66FE98" stroke="black" stroke-width="0.267335"/>
  <path d="M52.1036 5.60061V1.58789L101.909 51.4603H97.7108L52.1036 5.60061Z" fill="#45FE02" stroke="black" stroke-width="0.267335"/>
  <path d="M52.2181 97.2054V101.218L2.41266 51.3457H6.61082L52.2181 97.2054Z" fill="#017D17" stroke="black" stroke-width="0.267335"/>
  <path d="M11.6524 6.65283H43.7667L45.7232 8.612V14.6246L44.1715 16.5162H40.6632V46.3767L70.8884 16.5162H65.8958L64.1417 14.6246V8.27421L65.7609 6.78795H98.28L99.8992 8.40933V14.3544L26.3602 89.8838H17.9943L15.5728 88.4839V16.246H11.5175L10.0332 14.7597V8.40933L11.6524 6.65283Z" stroke="black" stroke-width="5.3467"/>
  <path d="M52.1036 97.2054V101.218L101.909 51.3457H97.7108L52.1036 97.2054Z" fill="#005D04" stroke="black" stroke-width="0.267335"/>
  <path d="M52.0837 1.21802L2.09094 51.278L51.8754 101.129L101.868 51.0694L52.0837 1.21802Z" stroke="black" stroke-width="1.60401"/>
  <path d="M44.108 9.70896L45.9208 8.75355L44.0603 6.8905H11.6677L10.0218 8.53858V14.7726L11.8466 16.5998L12.7172 14.7726L11.5723 13.6261V9.23125L12.431 8.46693H43.3447L44.108 9.70896Z" fill="#FEFEFE" stroke="black" stroke-width="0.267335"/>
  <path d="M67.0094 8.27441L65.8657 9.41971V13.6247L66.8675 14.6279H72.1605V18.6908L37.1465 54.2284V14.678H42.9654L44.1593 13.4826V9.22743L43.0573 8.37473H12.4346L11.4327 9.37791V13.725L12.4513 14.7449H17.7777V87.5758L18.7795 88.579H24.8323L98.2082 12.7636V9.41971L97.0644 8.27441H67.0094Z" stroke="black" stroke-width="0.267335"/>
  <path d="M17.7244 14.6246V87.5869L18.669 88.6678L17.9283 90.0814L15.8354 87.9922V16.5162L17.7244 14.6246Z" fill="#FEFEFE" stroke="black" stroke-width="0.267335"/>
  <path d="M12.4912 14.6246L11.9514 16.3811H15.8645L18.0235 14.6246H12.4912Z" fill="#808080" stroke="black" stroke-width="0.267335"/>
  <path d="M66.2438 16.5974L67.1025 14.8299L65.8621 13.6834V9.76626L67.2933 8.33314H97.1575L98.3024 9.86179L99.9244 8.7153L98.2547 7.04333H66.1483L64.5502 8.64365V14.9255L66.208 16.49M40.2617 46.6534L37.1429 54.231L72.3502 18.8809V14.6771L40.2617 46.6534Z" fill="#FEFEFE"/>
  <path d="M66.2438 16.5974L67.1025 14.8299L65.8621 13.6834V9.76626L67.2933 8.33314H97.1575L98.3024 9.86179L99.9244 8.7153L98.2547 7.04333H66.1483L64.5502 8.64365V14.9255L66.208 16.49M40.2617 46.6534L37.1429 54.231L72.3502 18.8809V14.6771L40.2617 46.6534Z" stroke="black" stroke-width="0.267335"/>
  <path d="M44.0365 9.49029L45.5883 8.47693V14.6247L43.8004 16.4149H40.3259V46.7146L37.1549 54.2135V14.6247H42.9571L44.0365 13.7464V9.49029Z" fill="#808080" stroke="black" stroke-width="0.267335"/>
  <path d="M67.0094 8.27441L65.8657 9.41971V13.6247L66.8675 14.6279H72.1605V18.6908L37.1465 54.2284V14.678H42.9654L44.1593 13.4826V9.22743L43.0573 8.37473H12.4346L11.4327 9.37791V13.725L12.4513 14.7449H17.7777V87.5758L18.7795 88.579H24.8323L98.2082 12.7636V9.41971L97.0644 8.27441H67.0094Z" fill="#CCCCCC" stroke="black" stroke-width="0.267335"/>
  <path d="M98.3024 9.51784L99.9321 8.57568V14.486L26.0168 90.1175H18.1693L18.9191 88.6257H24.9301L98.207 12.8618L98.3024 9.51784Z" fill="#808080" stroke="black" stroke-width="0.267335"/>
  <path d="M72.204 14.726L70.5511 16.4487H66.2332L67.2452 14.726C67.2789 14.726 72.204 14.726 72.204 14.726Z" fill="#808080" stroke="black" stroke-width="0.267335"/>
  <path d="M54.5783 57.3671C54.5226 57.3787 54.4708 57.4046 54.428 57.4423L53.0088 58.6628C52.9663 58.7014 52.9347 58.7504 52.9169 58.8049L51.4977 62.7842C51.4767 62.8426 51.4726 62.9058 51.4859 62.9664C51.4992 63.0271 51.5293 63.0827 51.5728 63.127L52.6581 64.2138C52.7208 64.2741 52.8049 64.3072 52.8919 64.3057H57.2749C57.3619 64.3072 57.4459 64.2741 57.5087 64.2138L58.6524 63.0601C58.6918 63.0206 58.7205 62.9717 58.7359 62.918L59.9548 58.7297C59.9714 58.6729 59.9724 58.6126 59.9577 58.5552C59.943 58.4979 59.9132 58.4455 59.8713 58.4037L58.9279 57.459C58.8652 57.3987 58.7812 57.3656 58.6942 57.3671H54.6451C54.6229 57.3648 54.6005 57.3648 54.5783 57.3671ZM46.5469 68.5859C46.4867 68.5989 46.4313 68.6285 46.3871 68.6713C46.3428 68.7142 46.3114 68.7686 46.2965 68.8284L45.7538 70.9852C45.7418 71.0336 45.7408 71.0842 45.7511 71.133C45.7614 71.1819 45.7826 71.2277 45.8131 71.2672C45.8437 71.3066 45.8828 71.3386 45.9274 71.3607C45.9721 71.3828 46.0212 71.3945 46.0711 71.3949H48.6508L42.2557 89.6778C42.2392 89.7271 42.2346 89.7797 42.2422 89.8311C42.2499 89.8826 42.2695 89.9315 42.2997 89.9739C42.3298 90.0163 42.3695 90.051 42.4155 90.075C42.4616 90.0991 42.5127 90.112 42.5646 90.1125H51.8733C51.9433 90.1135 52.0118 90.0922 52.0688 90.0516C52.1259 90.011 52.1685 89.9533 52.1906 89.8868L52.8 87.9222C52.8152 87.8727 52.8184 87.8204 52.8096 87.7694C52.8008 87.7184 52.7801 87.6702 52.7492 87.6287C52.7183 87.5871 52.6781 87.5535 52.6318 87.5304C52.5855 87.5074 52.5345 87.4955 52.4828 87.4959H50.3789L56.7072 69.0207C56.7237 68.9713 56.7283 68.9188 56.7207 68.8673C56.7131 68.8159 56.6934 68.7669 56.6633 68.7246C56.6332 68.6822 56.5934 68.6475 56.5474 68.6234C56.5013 68.5993 56.4502 68.5865 56.3983 68.5859H46.6137C46.5915 68.5837 46.5691 68.5837 46.5469 68.5859ZM76.1678 68.6528C76.0962 68.6676 76.0316 68.7059 75.9841 68.7615L74.0473 70.9518H70.9666L68.9129 68.82C68.8825 68.7886 68.8462 68.7636 68.806 68.7464C68.7659 68.7291 68.7228 68.7201 68.6791 68.7197H61.324C61.2564 68.7199 61.1906 68.7408 61.1353 68.7797C61.0801 68.8186 61.0381 68.8735 61.0151 68.9371L60.3388 70.9601C60.3223 71.0095 60.3177 71.062 60.3253 71.1135C60.3329 71.1649 60.3526 71.2139 60.3827 71.2562C60.4129 71.2986 60.4526 71.3333 60.4986 71.3574C60.5447 71.3815 60.5958 71.3943 60.6477 71.3949H62.618L56.4901 89.4772C56.4736 89.5265 56.469 89.579 56.4766 89.6305C56.4842 89.682 56.5039 89.7309 56.534 89.7733C56.5642 89.8157 56.6039 89.8503 56.6499 89.8744C56.696 89.8985 56.7471 89.9113 56.799 89.9119H64.63C64.6976 89.9117 64.7634 89.8908 64.8187 89.8519C64.8739 89.813 64.9159 89.7581 64.9389 89.6945L65.54 87.9306C65.5565 87.8813 65.5612 87.8287 65.5535 87.7773C65.5459 87.7258 65.5262 87.6769 65.4961 87.6345C65.466 87.5921 65.4263 87.5575 65.3802 87.5334C65.3342 87.5093 65.2831 87.4964 65.2311 87.4959H63.862L67.7691 75.1819H74.8404L70.3822 89.4855C70.3671 89.535 70.3638 89.5874 70.3726 89.6384C70.3815 89.6894 70.4022 89.7376 70.4331 89.7791C70.4639 89.8206 70.5042 89.8543 70.5504 89.8773C70.5967 89.9004 70.6478 89.9122 70.6995 89.9119H78.255C78.3191 89.9114 78.3818 89.8921 78.4351 89.8565C78.4885 89.8209 78.5304 89.7704 78.5555 89.7112L79.2317 88.0894C79.2514 88.0399 79.2587 87.9862 79.2531 87.9332C79.2475 87.8801 79.2292 87.8292 79.1996 87.7848C79.1701 87.7405 79.1302 87.7039 79.0835 87.6783C79.0367 87.6528 78.9845 87.6389 78.9312 87.638H77.562L81.536 75.115H88.2649L83.74 89.4855C83.7249 89.535 83.7216 89.5874 83.7304 89.6384C83.7393 89.6894 83.7599 89.7376 83.7908 89.7791C83.8217 89.8206 83.8619 89.8543 83.9082 89.8773C83.9545 89.9004 84.0055 89.9122 84.0572 89.9119H92.3558C92.4223 89.9124 92.4874 89.8927 92.5426 89.8554C92.5977 89.818 92.6403 89.7649 92.6647 89.7029L93.3409 87.939C93.3591 87.8892 93.365 87.8357 93.3581 87.7831C93.3513 87.7306 93.3319 87.6804 93.3016 87.6369C93.2713 87.5935 93.231 87.5579 93.184 87.5334C93.1371 87.5088 93.0849 87.496 93.032 87.4959H91.3873L96.3881 71.236C96.4046 71.1855 96.4086 71.1318 96.3999 71.0794C96.3912 71.027 96.37 70.9775 96.338 70.9351L94.7852 68.8451C94.7535 68.8048 94.7128 68.7725 94.6664 68.7508C94.6201 68.729 94.5693 68.7184 94.5181 68.7197H88.5822C88.5371 68.719 88.4924 68.7275 88.4507 68.7447C88.4091 68.762 88.3714 68.7876 88.3401 68.82L86.47 70.8765H83.1973L81.2605 68.7531C81.2291 68.7207 81.1914 68.6951 81.1498 68.6778C81.1081 68.6606 81.0634 68.6521 81.0183 68.6528H76.2346C76.2124 68.6506 76.19 68.6506 76.1678 68.6528Z" fill="#CCCCCC" stroke="black" stroke-width="2.13868" stroke-miterlimit="10"/>
  <path d="M54.6451 57.6931L53.2258 58.9137L51.8065 62.8929L52.8919 63.9797H57.2749L58.4186 62.8261L59.6375 58.6378L58.6942 57.6931H54.6451ZM46.6137 68.912L46.0711 71.0688H49.1099L42.5646 89.7865H51.8733L52.4828 87.8219H49.9198L56.3983 68.912H46.6137ZM76.2346 68.9789L74.2059 71.2778H70.833L68.6791 69.0458H61.324L60.6477 71.0688H63.0772L56.799 89.5859H64.63L65.2311 87.8219H63.4111L67.527 74.8559H75.2912L70.6995 89.5859H78.2549L78.9312 87.9641H77.1112L81.2938 74.789H88.7158L84.0572 89.5859H92.3557L93.032 87.8219H90.9365L96.0709 71.1357L94.518 69.0458H88.5822L86.6203 71.2026H83.047L81.0183 68.9789H76.2346Z" fill="#CCCCCC" stroke="black" stroke-width="0.267335" stroke-miterlimit="10"/>
</svg>